<?xml version="1.0" standalone="no"?>
<!DOCTYPE svg PUBLIC "-//W3C//DTD SVG 20010904//EN"
 "http://www.w3.org/TR/2001/REC-SVG-20010904/DTD/svg10.dtd">
<svg version="1.0" xmlns="http://www.w3.org/2000/svg"
 width="970.067015pt" height="1243.755042pt" viewBox="0 0 970.067015 1210"
 preserveAspectRatio="xMidYMid meet">

 <rect width="100%" height="100%" fill="#1e1e2e"/>

<g transform="translate(-552.059514,1621.843037) scale(0.100000,-0.100000)"
fill="#89b4fa" stroke="none">
<path d="M9615 16205 c-254 -35 -510 -102 -675 -177 -354 -161 -569 -308 -825
-563 -194 -194 -309 -353 -441 -610 -156 -302 -243 -608 -280 -977 -7 -75 -42
-127 -169 -252 -348 -344 -756 -523 -1260 -556 -243 -15 -283 -27 -365 -109
-97 -97 -106 -230 -23 -364 31 -49 134 -148 201 -193 115 -77 341 -180 467
-214 17 -4 64 -17 105 -28 196 -53 352 -73 616 -79 356 -8 609 24 926 116 58
17 113 31 122 31 8 0 47 -21 86 -46 92 -59 150 -84 290 -124 286 -81 383 -135
503 -282 135 -166 155 -426 48 -654 -33 -71 -94 -166 -144 -224 -170 -198
-288 -308 -747 -694 -467 -393 -690 -613 -882 -872 -208 -281 -374 -638 -459
-989 -65 -268 -73 -345 -73 -645 0 -256 11 -380 44 -525 5 -22 16 -74 25 -115
31 -139 103 -355 168 -505 159 -366 400 -715 725 -1047 202 -207 219 -233 168
-256 -13 -6 -69 -18 -123 -26 -54 -9 -143 -23 -198 -32 -161 -26 -431 -102
-540 -153 -162 -76 -244 -119 -314 -165 -47 -31 -92 -56 -102 -56 -30 0 -144
-57 -184 -91 -66 -58 -92 -149 -63 -216 22 -50 61 -94 101 -114 40 -21 47 -22
506 -49 90 -5 166 -11 168 -14 2 -2 6 -48 9 -101 5 -110 24 -159 77 -199 83
-63 138 -69 320 -31 252 53 385 79 565 111 45 7 121 22 170 31 72 13 161 17
517 18 417 1 431 1 470 22 70 37 98 83 110 188 10 76 20 105 39 105 9 0 89
-18 178 -39 198 -48 342 -78 468 -97 135 -21 382 -44 468 -44 49 0 74 -4 76
-12 2 -7 9 -32 15 -56 15 -54 62 -107 109 -124 26 -9 99 -13 237 -13 110 0
361 -1 558 -3 330 -2 358 -3 364 -19 20 -53 101 -168 148 -211 91 -84 188
-103 291 -57 32 14 112 65 178 114 67 49 165 115 219 149 l98 60 549 -6 c574
-5 584 -5 634 37 10 9 32 34 47 55 25 34 29 48 29 108 0 115 -40 169 -195 265
-86 53 -241 161 -267 186 -7 7 -39 31 -70 55 -32 23 -58 48 -58 55 0 22 100
110 229 203 480 346 919 871 1174 1407 62 128 74 160 120 297 109 326 179 617
252 1045 13 77 29 163 34 190 6 28 19 92 30 143 22 110 16 149 -32 200 -41 43
-87 62 -152 62 -77 0 -135 -21 -222 -83 -91 -64 -182 -100 -245 -95 -41 3 -43
5 -46 38 -4 35 7 97 36 200 8 30 16 98 16 152 1 91 0 98 -29 139 -16 23 -47
56 -68 73 -36 29 -44 31 -116 30 -73 -1 -146 -19 -196 -50 -34 -21 -205 -66
-229 -60 -12 3 -96 81 -187 173 -91 92 -209 209 -264 258 -54 50 -103 95 -109
100 -123 117 -450 347 -661 465 -33 18 -79 44 -102 57 -94 52 -334 171 -418
207 -49 21 -103 44 -120 52 -157 70 -497 179 -825 265 -115 30 -138 44 -149
87 -17 69 -21 217 -12 507 l9 290 43 38 c24 20 85 65 134 98 368 251 625 510
834 842 72 113 174 316 226 445 139 351 200 810 161 1202 -9 91 -22 190 -27
220 -18 94 -40 194 -49 220 -5 14 -21 66 -35 115 -177 591 -572 1100 -1102
1418 -353 212 -689 326 -1113 377 -112 13 -432 10 -545 -5z m560 -366 c320
-37 637 -150 933 -331 349 -213 663 -579 839 -978 27 -63 58 -142 68 -175 9
-33 21 -71 26 -85 24 -71 58 -244 80 -403 17 -134 15 -422 -5 -547 -53 -332
-149 -606 -299 -854 -92 -153 -131 -207 -244 -338 -167 -193 -346 -339 -673
-551 -47 -30 -102 -71 -122 -91 -78 -78 -92 -202 -83 -701 9 -485 27 -588 115
-676 62 -62 85 -73 242 -113 329 -85 376 -98 418 -110 25 -8 72 -21 105 -31
156 -44 462 -164 630 -246 203 -99 518 -291 744 -452 165 -118 306 -243 546
-482 170 -169 220 -213 252 -223 69 -21 234 -42 326 -42 70 0 89 -3 94 -16 8
-21 -49 -237 -68 -258 -5 -6 -29 -5 -61 2 -29 7 -100 21 -158 32 -58 11 -134
27 -170 35 -36 9 -85 19 -110 25 -116 24 -147 32 -223 56 -45 15 -91 30 -102
34 -227 84 -379 160 -454 226 -25 23 -68 77 -95 120 -87 139 -174 241 -279
330 -188 158 -402 275 -652 358 -123 41 -133 44 -244 62 -181 29 -356 3 -521
-78 -70 -34 -102 -58 -180 -137 -104 -104 -144 -170 -180 -296 -30 -104 -28
-280 4 -400 58 -216 193 -423 417 -640 324 -313 719 -517 1234 -635 243 -56
594 -75 840 -45 186 22 208 27 390 78 128 36 301 114 408 183 94 61 153 123
232 243 75 113 78 115 235 141 94 15 185 36 274 61 42 13 72 17 78 11 9 -9
-10 -147 -32 -232 -5 -19 -16 -64 -24 -100 -72 -311 -81 -343 -136 -515 -114
-354 -234 -594 -439 -880 -280 -392 -739 -811 -1063 -971 l-77 -38 -88 46
c-112 58 -172 72 -305 71 -284 -2 -634 -73 -955 -192 -131 -48 -325 -141 -412
-196 -22 -14 -42 -25 -44 -25 -7 0 -180 -101 -232 -135 -27 -18 -76 -47 -108
-64 -56 -30 -61 -31 -192 -31 -212 0 -552 37 -795 87 -95 19 -271 61 -330 78
-319 92 -466 147 -680 254 -78 39 -188 98 -205 111 -5 4 -37 22 -70 40 -202
110 -528 354 -717 538 -436 425 -714 924 -828 1491 -38 191 -53 548 -30 700
33 214 44 273 62 341 11 41 24 89 28 105 40 157 181 457 302 640 211 321 389
501 943 960 571 472 780 695 928 990 199 396 142 800 -152 1096 -121 120 -325
245 -516 314 -27 10 -54 21 -60 25 -5 3 -30 13 -55 20 -78 24 -78 25 3 109 81
83 154 188 183 266 14 36 19 75 19 141 -1 84 -3 96 -31 140 -25 42 -51 62
-189 147 -95 58 -184 121 -218 155 -93 91 -191 246 -280 443 -19 43 -46 85
-63 98 -25 20 -36 22 -86 16 -50 -6 -59 -5 -65 11 -7 18 10 134 27 189 5 17
30 98 56 180 78 253 145 392 293 605 326 469 775 770 1315 882 173 35 526 49
711 27z m-2353 -2474 c132 -198 214 -284 383 -401 71 -49 131 -97 133 -106 4
-21 -60 -93 -111 -125 -81 -51 -236 -122 -332 -152 -159 -50 -146 -47 -370
-91 -101 -20 -344 -40 -482 -40 -311 0 -649 63 -898 168 -211 88 -214 95 -49
112 121 13 268 41 394 75 52 15 109 30 125 34 17 4 73 25 125 46 316 125 629
334 870 579 44 45 71 66 85 64 13 -2 56 -58 127 -163z m3707 -4351 c172 -29
471 -171 654 -312 88 -67 97 -77 196 -217 111 -156 151 -198 256 -275 234
-169 597 -303 1070 -394 65 -13 83 -36 48 -61 -41 -31 -183 -95 -263 -118
-233 -70 -367 -89 -625 -89 -210 0 -306 10 -465 48 -72 17 -80 19 -235 70
-497 163 -884 443 -1047 760 -64 124 -78 178 -78 301 0 122 13 155 85 222 97
89 179 102 404 65z m-3267 -4028 c57 -71 246 -202 478 -330 52 -28 76 -48 78
-62 4 -31 -16 -34 -243 -34 -197 0 -398 -18 -600 -55 -44 -7 -105 -18 -135
-24 -52 -9 -165 -34 -290 -65 -102 -26 -120 -27 -127 -9 -3 8 1 39 10 67 29
90 29 96 13 121 -9 14 -31 32 -48 41 -40 21 -155 54 -187 54 -37 0 -101 22
-101 35 0 19 106 48 290 80 52 8 118 20 145 25 28 5 97 16 155 25 181 27 283
46 336 61 51 15 130 61 154 89 20 24 43 18 72 -19z m4473 -127 c87 -88 136
-124 250 -185 50 -26 104 -56 120 -65 17 -10 56 -33 88 -51 89 -51 78 -57 -73
-47 -324 23 -459 29 -495 23 -36 -6 -200 -100 -285 -163 -40 -29 -134 -104
-168 -132 -43 -37 -59 -26 -103 69 -79 169 -70 166 -444 169 -165 2 -304 3
-309 3 -14 0 17 31 54 55 101 62 466 205 655 255 17 4 57 15 90 24 63 17 124
31 320 71 66 14 136 29 155 34 65 17 73 13 145 -60z"/>

</g>
</svg>
